<svg width="600" height="600" viewBox="0 0 600 600" fill="none" xmlns="http://www.w3.org/2000/svg">
<path d="M595.876 406.597C595.842 383.203 595.725 335.327 595.725 318.317C595.725 318.317 595.725 318.078 595.737 317.618C490.231 256.92 331.365 165.099 259.212 123.335C198.115 158.679 75.1534 229.729 4.0166 270.595C4.0166 290.439 4.16145 349.232 4.14971 366.675C69.0384 404.248 238.957 502.467 343.421 562.533C417.578 519.904 538.828 449.832 595.885 416.808V415.91C595.885 413.632 595.881 410.447 595.876 406.597Z" fill="white"/>
<path d="M257.805 124.144C196.467 159.632 75.492 229.534 4.78589 270.154C58.3646 301.185 252.101 413.185 341.908 464.691C407.481 427.108 551.076 344.157 595.725 318.311C595.725 318.311 595.725 318.072 595.737 317.612C490.231 256.914 331.365 165.093 259.212 123.33L257.805 124.144Z" fill="#82BEE9"/>
<path d="M599.791 406.597C599.768 390.807 599.738 375.017 599.701 359.227C599.673 345.366 599.348 331.469 599.652 317.612C599.652 316.929 599.473 316.257 599.133 315.665C598.793 315.072 598.304 314.579 597.714 314.234C551.127 287.43 504.563 260.588 458.022 233.707C411.858 207.061 365.705 180.398 319.562 153.717C300.101 142.465 280.643 131.21 261.187 119.949C260.586 119.603 259.905 119.421 259.211 119.421C258.518 119.421 257.836 119.603 257.235 119.949C226.228 137.894 195.214 155.822 164.191 173.735C127.857 194.723 91.5143 215.693 55.1623 236.647C37.462 246.847 19.7557 257.036 2.04365 267.216C1.45534 267.563 0.967346 268.057 0.627592 268.649C0.287839 269.241 0.108019 269.912 0.105798 270.595C0.105798 293.204 0.139727 315.814 0.207584 338.423C0.218024 344.003 0.226506 349.585 0.233031 355.167C-0.0607674 359.172 -0.0352402 363.195 0.30937 367.196C0.759578 369.864 3.68202 370.926 5.79016 372.152L11.1574 375.254L22.9646 382.086C42.7581 393.545 62.5594 404.997 82.3686 416.444C106.722 430.522 131.077 444.596 155.435 458.664C181.328 473.618 207.226 488.566 233.13 503.509C258.02 517.863 282.918 532.218 307.823 546.572C318.882 552.94 329.785 559.896 341.129 565.737C344.474 567.46 347.615 564.643 350.481 562.997L358.702 558.272C364.47 554.952 370.238 551.632 376.006 548.31C401.699 533.516 427.383 518.705 453.056 503.877C478.835 489 504.608 474.114 530.374 459.218C551.472 447.023 572.566 434.822 593.658 422.614C595.891 421.32 599.266 420.134 599.726 417.317C600.033 413.748 600.053 410.16 599.787 406.587C599.787 401.55 591.957 401.541 591.957 406.587C591.957 409.99 591.957 413.394 591.957 416.799L593.895 413.418C564.075 430.678 534.248 447.924 504.411 465.157C468.264 486.036 432.111 506.902 395.952 527.753C377.783 538.226 359.609 548.689 341.43 559.143H345.382C297.826 531.798 250.297 504.405 202.797 476.966C155.874 449.882 108.958 422.778 62.0505 395.655C43.4093 384.876 24.7713 374.092 6.13663 363.302L8.07448 366.683C8.09014 340.622 7.99422 314.562 7.95703 288.501C7.9479 282.535 7.94268 276.569 7.94137 270.603L6.00156 273.983C39.4292 254.781 72.8359 235.54 106.222 216.26C141.891 195.667 177.561 175.061 213.23 154.443C229.219 145.203 245.204 135.958 261.187 126.71H257.235C295.851 149.061 334.478 171.396 373.115 193.713C421.493 221.666 469.883 249.599 518.283 277.512C543.436 292.017 568.596 306.51 593.764 320.993L591.824 317.612C591.521 331.469 591.845 345.366 591.873 359.227C591.904 375.017 591.934 390.807 591.963 406.597C591.969 411.635 599.798 411.643 599.791 406.597Z" fill="#211715"/>
<path d="M338.772 464.429C338.772 491.488 338.819 518.548 338.913 545.607C338.922 551.088 338.928 556.562 338.932 562.028C338.932 567.066 346.762 567.074 346.762 562.028C346.762 535.603 346.664 509.177 346.621 482.752C346.611 476.641 346.604 470.53 346.601 464.419C346.601 459.382 338.772 459.373 338.772 464.419V464.429Z" fill="#211715"/>
<path d="M6.71604 275.778C22.519 284.935 38.3259 294.084 54.1366 303.225C76.3704 316.087 98.6087 328.94 120.852 341.786C146.1 356.374 171.351 370.956 196.604 385.533C221.449 399.87 246.298 414.199 271.153 428.518C292.174 440.626 313.203 452.721 334.24 464.801L340.712 468.52C345.088 471.029 349.039 464.268 344.662 461.759C324.328 450.099 304.006 438.42 283.696 426.721C259.125 412.573 234.561 398.414 210.005 384.245C184.617 369.586 159.231 354.924 133.847 340.259C111.051 327.089 88.2565 313.913 65.4643 300.731C48.6787 291.024 31.8964 281.312 15.1173 271.595L10.6681 269.009C6.2991 266.478 2.35293 273.241 6.71604 275.77V275.778Z" fill="#211715"/>
<path d="M342.732 494.031C325.192 483.974 307.663 473.897 290.145 463.8C268.774 451.495 247.409 439.179 226.049 426.852C204.018 414.144 181.991 401.427 159.969 388.7C140.086 377.216 120.207 365.726 100.33 354.23C85.7587 345.802 71.1883 337.372 56.6185 328.94L52.733 326.689C48.364 324.16 44.4179 330.922 48.781 333.449C62.4947 341.393 76.2117 349.331 89.9319 357.264C109.324 368.477 128.717 379.687 148.113 390.894C170.023 403.552 191.935 416.205 213.851 428.852C235.469 441.329 257.09 453.797 278.716 466.255C296.855 476.708 315.008 487.147 333.175 497.574L338.78 500.788C343.158 503.299 347.106 496.536 342.732 494.027V494.031Z" fill="#211715"/>
<path d="M321.243 513.37C304.254 503.627 287.29 493.84 270.35 484.009C265.981 481.478 262.035 488.243 266.398 490.77C283.345 500.584 300.31 510.371 317.291 520.131C321.67 522.643 325.618 515.88 321.243 513.37Z" fill="#211715"/>
<path d="M488.227 490.036C479.188 495.227 449.873 512.164 436.539 519.839C423.673 512.45 400.853 499.298 383.814 489.466C399.916 480.204 417.627 470.005 435.541 459.662C453.029 469.761 475.991 483.012 488.227 490.036Z" fill="#EA6D67"/>
<path d="M383.814 493.381H383.834L381.859 492.847C398.23 502.313 414.616 511.757 431.015 521.18C432.52 522.307 434.215 523.155 436.019 523.684C437.976 523.948 439.792 522.484 441.413 521.55C444.499 519.773 447.586 517.994 450.672 516.212C457.687 512.167 464.703 508.122 471.718 504.076C477.877 500.524 484.039 496.974 490.202 493.424C490.783 493.072 491.264 492.576 491.598 491.984C491.932 491.392 492.107 490.723 492.107 490.044C492.107 489.364 491.932 488.696 491.598 488.104C491.264 487.511 490.783 487.015 490.202 486.663C472.623 476.571 455.062 466.446 437.518 456.29C433.145 453.767 429.199 460.53 433.566 463.051C451.12 473.189 468.681 483.313 486.25 493.424V486.655C469.005 496.561 451.78 506.496 434.574 516.459H438.524C429.911 511.508 421.299 506.549 412.686 501.583C407.858 498.801 403.029 496.018 398.201 493.234L391.013 489.084C389.003 487.924 386.192 485.544 383.816 485.544C378.778 485.544 378.77 493.373 383.816 493.373L383.814 493.381Z" fill="#211715"/>
<path d="M561.409 382.448C537.323 396.396 513.226 410.325 489.12 424.235C456.703 442.952 424.275 461.651 391.836 480.333C375.059 489.989 358.277 499.636 341.489 509.273C337.116 511.775 341.056 518.544 345.441 516.032C376.444 498.285 407.408 480.465 438.332 462.573C468.974 444.908 499.606 427.226 530.229 409.527C541.94 402.755 553.65 395.981 565.359 389.205C569.719 386.682 565.78 379.913 561.407 382.446L561.409 382.448Z" fill="#211715"/>
<path d="M344.311 467.825C378.33 448.329 412.315 428.773 446.266 409.157C482.893 388.035 519.509 366.895 556.115 345.736C569.977 337.725 583.838 329.71 597.696 321.691C602.055 319.166 598.117 312.397 593.744 314.93C564.823 331.671 535.89 348.393 506.948 365.095C468.922 387.055 430.882 408.993 392.83 430.91C375.344 440.975 357.853 451.026 340.357 461.064C335.986 463.569 339.927 470.338 344.311 467.825Z" fill="#211715"/>
<path d="M513.333 263.096C513.307 245.632 513.219 209.889 513.219 197.185C513.219 197.185 513.219 197.007 513.229 196.665C434.466 151.348 315.86 82.7992 261.996 51.6213C216.387 78.0114 124.584 131.056 71.4773 161.564C71.4773 176.378 71.5869 220.269 71.5771 233.292C120.021 261.342 246.874 334.667 324.868 379.512C380.232 347.686 470.751 295.376 513.347 270.72V270.049C513.339 268.348 513.337 265.969 513.333 263.096Z" fill="white"/>
<path d="M258.576 53.5984C211.93 80.5854 123.29 131.794 71.4773 161.564C71.4773 176.378 71.5869 220.269 71.5771 233.292C92.6449 245.491 128.538 266.253 168.802 289.511C168.773 271.636 168.697 232.145 168.689 217.12C250.574 169.819 319.562 129.928 358.471 107.402C319.924 85.1325 285.036 64.9593 261.996 51.6155L258.576 53.5984Z" fill="#27BAEC"/>
<path d="M517.248 263.096C517.215 240.977 516.661 218.783 517.144 196.665C517.144 195.981 516.965 195.309 516.625 194.716C516.285 194.123 515.795 193.629 515.204 193.284C480.435 173.279 445.681 153.248 410.942 133.191C376.484 113.3 342.033 93.3992 307.59 73.4896C293.053 65.0713 278.513 56.655 263.971 48.2407C263.37 47.8944 262.688 47.7122 261.995 47.7122C261.301 47.7122 260.62 47.8944 260.019 48.2407C236.838 61.6556 213.651 75.0601 190.458 88.4541C163.401 104.081 136.337 119.696 109.268 135.299C96.0157 142.933 82.7607 150.561 69.5024 158.183C68.9136 158.53 68.4251 159.024 68.085 159.617C67.7449 160.21 67.5649 160.881 67.5626 161.564C67.5626 178.641 67.5887 195.718 67.6409 212.798C67.6487 216.932 67.6546 221.066 67.6585 225.2C67.6585 227.983 67.0576 231.624 67.8034 234.333C68.6 237.226 74.0476 239.246 76.5139 240.673L85.5181 245.89C118.511 264.98 151.513 284.056 184.523 303.117C222.385 324.986 260.257 346.832 298.141 368.656L311.104 376.117L317.072 379.551C319.072 380.884 321.169 382.066 323.345 383.088C325.929 384.086 328.345 382.019 330.5 380.78L337.012 377.033C341.402 374.508 345.791 371.982 350.18 369.454C369.296 358.444 388.407 347.425 407.513 336.395C442.504 316.199 477.484 295.984 512.454 275.75C514.592 274.513 517.046 273.548 517.246 270.718C517.424 268.205 517.246 265.615 517.246 263.096C517.246 258.057 509.416 258.049 509.416 263.096C509.416 265.636 509.416 268.177 509.416 270.718L511.356 267.337C489.143 280.195 466.924 293.042 444.698 305.879C417.661 321.499 390.616 337.108 363.563 352.707C350.003 360.521 336.441 368.328 322.877 376.129H326.83C291.37 355.741 255.932 335.318 220.514 314.862C185.516 294.661 150.528 274.447 115.549 254.219C101.545 246.118 87.5473 238.015 73.5543 229.911L75.4921 233.292C75.5039 213.892 75.4334 194.49 75.4041 175.09C75.4041 170.58 75.4001 166.071 75.3923 161.564L73.4545 164.942C98.443 150.588 123.415 136.204 148.371 121.791C174.942 106.46 201.507 91.1188 228.064 75.766C240.035 68.8498 252.004 61.9284 263.971 55.0017H260.019C288.84 71.6855 317.669 88.3549 346.506 105.01C382.615 125.875 418.733 146.724 454.859 167.558C473.65 178.389 492.448 189.22 511.252 200.051L509.315 196.67C508.829 218.789 509.385 240.975 509.418 263.102C509.426 268.132 517.256 268.142 517.248 263.096Z" fill="#211715"/>
<path d="M320.399 306.271C320.399 322.836 320.517 339.404 320.519 355.97C320.519 361.008 328.349 361.016 328.349 355.97C328.349 339.404 328.231 322.836 328.229 306.271C328.229 301.232 320.399 301.224 320.399 306.271Z" fill="#211715"/>
<path d="M327.043 303.851C297.333 286.815 267.655 269.727 238.007 252.588C206.022 234.132 174.045 215.66 142.076 197.171C129.962 190.172 117.855 183.167 105.756 176.158C101.389 173.627 97.4407 180.392 101.804 182.919C127.061 197.547 152.327 212.157 177.601 226.752C210.811 245.935 244.03 265.104 277.26 284.259C292.528 293.055 307.805 301.839 323.091 310.612C327.47 313.121 331.418 306.361 327.043 303.851Z" fill="#211715"/>
<path d="M326.029 309.663C347.499 297.357 368.949 285.014 390.379 272.634C413.414 259.348 436.443 246.053 459.467 232.748C468.283 227.658 477.097 222.561 485.91 217.454C490.271 214.931 486.332 208.162 481.959 210.693C463.705 221.263 445.443 231.818 427.175 242.357C403.267 256.164 379.351 269.958 355.426 283.737C344.313 290.131 333.196 296.519 322.077 302.902C317.706 305.407 321.646 312.174 326.029 309.663Z" fill="#211715"/>
<path d="M170.883 220.371C199.539 203.822 228.189 187.268 256.834 170.709C280.097 157.268 303.359 143.817 326.62 130.355C336.569 124.6 346.517 118.843 356.465 113.084C360.824 110.561 356.888 103.793 352.513 106.325C333.275 117.462 314.034 128.594 294.788 139.721C268.903 154.689 243.016 169.653 217.127 184.613C200.391 194.28 183.662 203.947 166.939 213.614C162.576 216.133 166.514 222.902 170.889 220.375L170.883 220.371Z" fill="#211715"/>
<path d="M164.764 217.086C164.79 239.29 164.884 261.493 164.886 283.696C164.886 288.734 172.715 288.742 172.715 283.696C172.715 261.493 172.62 239.29 172.594 217.086C172.594 212.048 164.764 212.04 164.764 217.086Z" fill="#211715"/>
<path d="M288.644 218.562C288.431 222.756 287.365 226.862 285.512 230.63C281.625 238.264 274.124 243.488 266.226 246.816C258.327 250.143 257.196 249.28 249.024 251.858C242.652 253.868 235.981 256.763 233.251 263.211C232.106 266.515 231.427 269.962 231.233 273.452C230.645 286.659 230.751 300.398 230.587 313.991C230.597 314.939 230.305 315.866 229.752 316.637C229.199 317.408 228.415 317.983 227.514 318.277C218.197 320.993 208.379 321.516 198.827 319.806C197.839 319.479 196.959 318.888 196.283 318.097C195.25 317.123 194.505 315.883 194.13 314.513C193.394 308.343 193.039 302.401 192.83 296.452C185.993 297.969 178.179 300.592 170.907 298.819C165.851 297.584 161.11 293.729 160.337 288.583L159.695 284.332C158.565 263.546 157.436 266.163 156.308 245.379C155.929 238.385 155.623 231.011 158.818 224.777C161.57 220.116 165.37 216.16 169.916 213.222C178.682 206.814 188.188 201.485 198.229 197.352C198.229 197.352 275.562 215.894 288.644 218.562Z" fill="#A0A0A0"/>
<path d="M272.826 225.529C277.328 223.008 283.128 220.169 288.726 216.814C298.016 211.257 306.848 204.23 308.674 194.801C309.3 190.721 309.28 186.568 308.616 182.495C306.828 168.065 303.415 149.643 294.422 137.773C288.941 130.507 280.29 121.135 271.853 116.811C271.853 116.811 257.217 109.725 242.999 108.8C220.171 107.31 208.489 117.042 208.489 117.042C195.261 127.065 186.088 141.52 182.651 157.757L178.67 180.682L177.231 188.95L272.826 225.529Z" fill="white"/>
<path d="M181.318 338.498C180.901 336.449 180.935 334.333 181.418 332.299C181.901 330.264 182.822 328.359 184.115 326.716C187.077 323.195 190.693 320.283 194.764 318.141C198.874 321.361 215.575 321.981 227.527 318.278C227.933 318.153 228.318 317.967 228.668 317.728C228.815 319.123 228.909 319.984 228.909 319.984C230.152 331.338 223.276 335.902 218.911 338.5C213.713 341.588 208.114 343.946 202.272 345.505C198.762 346.588 195.069 346.95 191.415 346.568C189.591 346.353 187.837 345.742 186.274 344.779C184.711 343.816 183.377 342.523 182.365 340.992C181.902 340.213 181.55 339.374 181.318 338.498Z" fill="white"/>
<path d="M146.353 313.897C146.883 312.4 147.637 310.993 148.59 309.723C151.808 305.989 155.726 302.922 160.123 300.694C162.363 299.15 164.903 298.096 167.577 297.599C168.643 298.132 169.764 298.544 170.921 298.828C178.192 300.602 186.005 297.981 192.844 296.462C192.991 300.751 193.218 305.033 193.607 309.402L190.536 309.909C190.765 314.803 186.425 318.62 182.213 321.124C177.188 324.11 171.775 326.388 166.127 327.894C162.733 328.944 159.161 329.29 155.629 328.912C153.866 328.709 152.168 328.122 150.656 327.191C149.145 326.26 147.856 325.009 146.881 323.525C146.096 322.056 145.642 320.433 145.551 318.77C145.459 317.106 145.733 315.443 146.353 313.897Z" fill="white"/>
<path d="M209.936 78.8098C209.393 90.2611 213.232 101.489 220.672 110.211C227.417 117.946 236.945 122.702 247.181 123.445C257.416 124.188 267.531 120.857 275.322 114.177C280.703 114.459 286.007 112.798 290.267 109.496C292.176 108.01 293.676 106.062 294.625 103.837C295.574 101.611 295.941 99.1799 295.691 96.7731C295.387 95.1033 294.677 93.5339 293.624 92.2027C292.571 90.8716 291.207 89.8195 289.652 89.1392C292.59 81.4988 292.923 73.1018 290.598 65.2529C288.273 57.404 283.421 50.5427 276.796 45.7352C259.38 33.3643 234.762 35.0672 220.451 51.3432C213.896 59.0199 210.183 68.7186 209.936 78.8098Z" fill="white"/>
<path d="M215.607 58.1943C213.062 62.7515 211.34 67.7209 210.517 72.875C220.866 73.7921 231.293 72.536 241.128 69.1872C241.403 69.0938 241.695 69.0585 241.985 69.0834C242.275 69.1083 242.557 69.193 242.813 69.3321C244.046 70.027 242.556 72.7224 241.86 73.9555C246.244 75.1907 256.981 73.1726 261.726 70.5653C264.362 76.9778 267.056 80.3191 272.227 82.7405L286.109 88.2702C287.335 88.3376 288.538 88.633 289.656 89.1412C292.591 81.4989 292.92 73.1015 290.594 65.2525C288.268 57.4036 283.415 50.5422 276.79 45.7334C259.381 33.3644 234.762 35.0674 220.451 51.3434C218.602 53.4516 216.978 55.7478 215.607 58.1943Z" fill="white"/>
<path d="M224.987 319.99C225.383 322.444 225.12 324.96 224.226 327.279C223.332 329.599 221.838 331.64 219.897 333.193C214.268 337.202 207.926 340.101 201.212 341.735C195.782 343.174 184.99 344.118 184.885 335.793C184.791 328.354 192.468 324.048 198.011 320.767C202.347 318.205 198.403 311.434 194.059 314.006C187.508 317.878 180.929 322.228 178.155 329.666C176.758 333.075 176.667 336.881 177.9 340.353C179.134 343.825 181.605 346.721 184.84 348.485C192.362 352.425 201.231 350.313 208.789 347.568C214.966 345.528 220.739 342.425 225.85 338.4C228.429 336.138 230.413 333.277 231.627 330.069C232.841 326.86 233.249 323.403 232.814 320C232.788 318.97 232.366 317.99 231.638 317.261C230.91 316.533 229.929 316.112 228.899 316.085C227.864 316.093 226.872 316.508 226.14 317.24C225.407 317.973 224.992 318.964 224.985 320L224.987 319.99Z" fill="#211715"/>
<path d="M166.015 293.894C162.554 294.83 159.279 296.353 156.332 298.396C153.397 300.082 150.654 302.082 148.15 304.36C143.331 308.954 140.162 316.124 142.295 322.76C144.548 329.779 151.914 333.187 158.882 333.003C166.397 332.807 174.099 329.809 180.714 326.424C187.222 323.097 194.511 318.043 194.457 309.906C194.423 304.869 186.592 304.857 186.627 309.906C186.666 315.656 178.179 319.123 173.892 321.043C170.797 322.416 167.588 323.513 164.301 324.322C160.991 325.404 157.432 325.466 154.087 324.5C148.43 322.378 148.571 316.224 151.793 311.935C153.833 309.492 156.303 307.443 159.08 305.889C161.8 303.886 164.853 302.381 168.098 301.444C173.031 300.437 170.942 292.89 166.015 293.894Z" fill="#211715"/>
<path d="M197.187 193.568C186.06 198.092 175.572 204.052 165.99 211.294C161.192 214.606 157.321 219.089 154.744 224.319C152.631 229.812 151.77 235.708 152.223 241.576C152.507 250.022 153.319 258.41 154.333 266.793C155.249 274.368 155.204 282.088 156.563 289.595C157.166 292.272 158.416 294.76 160.204 296.842C161.992 298.923 164.263 300.535 166.818 301.536C173.395 304.36 180.639 303.309 187.402 301.78C192.315 300.67 190.236 293.121 185.321 294.23C178.014 295.882 165.682 297.167 164.058 287.154C162.985 280.548 162.995 273.734 162.188 267.018C161.343 259.972 160.648 252.954 160.256 245.868C159.703 240.879 159.873 235.836 160.761 230.896C162.065 226.144 164.902 221.956 168.832 218.983C178.017 211.526 188.278 205.503 199.266 201.118C200.25 200.815 201.081 200.148 201.59 199.253C202.099 198.358 202.248 197.303 202.006 196.302C201.726 195.303 201.064 194.455 200.162 193.942C199.26 193.429 198.193 193.292 197.191 193.562L197.187 193.568Z" fill="#211715"/>
<path d="M196.375 231.319C189.667 235.981 187.983 243.292 187.862 250.977C187.739 258.774 188.154 266.564 188.396 274.353C188.715 284.57 188.67 294.802 189.356 305.006C189.673 309.731 189.324 315.508 192.327 319.424C195.204 323.183 198.735 323.972 203.2 324.441C207.486 324.86 211.803 324.845 216.086 324.396C220.541 324.13 224.941 323.265 229.166 321.826C234.275 319.835 234.498 314.938 234.543 310.201C234.596 304.82 234.615 299.435 234.668 294.056C234.719 288.734 234.799 283.412 234.975 278.091C234.86 273.734 235.434 269.386 236.676 265.208C239.289 258.132 248.566 255.8 255.096 254.225C263.563 252.181 271.714 249.527 278.765 244.189C283.028 241.001 286.498 236.873 288.903 232.125C291.309 227.376 292.586 222.137 292.635 216.814C292.831 211.776 285.001 211.784 284.805 216.814C284.788 220.82 283.861 224.77 282.095 228.366C280.329 231.962 277.769 235.11 274.609 237.573C269.007 241.76 262.55 244.66 255.699 246.064C248.72 247.614 241.308 249.587 235.596 254.089C229.252 259.081 227.686 266.709 227.281 274.396C226.766 284.099 226.827 293.843 226.76 303.561C226.744 305.938 226.725 308.314 226.703 310.69C226.837 311.796 226.825 312.915 226.666 314.018C226.445 314.646 226.537 314.41 226.124 314.639C224.329 315.348 222.441 315.795 220.518 315.966C218.531 316.324 216.526 316.576 214.512 316.721C210.745 317.034 206.957 317.004 203.195 316.631C201.961 316.62 200.742 316.368 199.607 315.887C197.784 314.803 197.833 312.703 197.649 310.878C196.753 301.663 196.61 292.4 196.426 283.147C196.25 274.359 195.801 265.576 195.684 256.785C195.641 253.475 195.586 250.139 195.84 246.835C195.862 246.561 195.884 246.287 195.911 246.015C195.991 245.232 195.86 246.254 195.932 245.886C196.124 244.842 196.408 243.818 196.78 242.824C197.464 240.937 198.69 239.294 200.303 238.099C204.414 235.243 200.499 228.453 196.353 231.338L196.375 231.319Z" fill="#211715"/>
<path d="M206.509 113.662C192.444 124.241 182.64 139.514 178.876 156.706C177.828 161.621 185.374 163.721 186.425 158.788C189.618 143.548 198.139 129.945 210.459 120.423C211.331 119.876 211.961 119.018 212.222 118.022C212.484 117.027 212.355 115.969 211.864 115.065C211.335 114.174 210.477 113.527 209.474 113.264C208.472 113.002 207.406 113.145 206.509 113.662Z" fill="#211715"/>
<path d="M182.495 197.334C178.141 194.619 176.331 190.033 175.62 185.165C174.823 179.705 175.757 172.759 183.697 170.774C186.55 170.206 189.512 170.759 191.969 172.318C194.554 173.823 196.648 176.043 198 178.712C199.351 181.38 199.902 184.383 199.585 187.357C199.049 193.817 192.947 199.757 186.523 198.82C185.091 198.61 183.719 198.104 182.495 197.334Z" fill="white"/>
<path d="M184.47 193.954C183.572 193.379 182.778 192.657 182.121 191.818C182.471 192.255 181.962 191.581 181.89 191.472C181.705 191.191 181.529 190.905 181.361 190.612C181.228 190.379 181.101 190.141 180.97 189.9C180.97 189.9 180.487 188.798 180.706 189.35C180.265 188.191 179.925 186.997 179.692 185.779C179.621 185.436 179.556 185.092 179.496 184.748C179.451 184.482 179.347 183.534 179.459 184.583C179.408 184.09 179.357 183.595 179.332 183.098C179.294 182.184 179.314 181.269 179.392 180.357C179.447 179.623 179.392 180.357 179.373 180.488C179.424 180.238 179.463 179.987 179.518 179.737C179.641 179.187 179.817 178.666 179.991 178.13C179.706 179.011 180.16 177.805 180.306 177.543C180.453 177.28 181.248 176.294 180.669 176.936C180.989 176.577 181.328 176.235 181.683 175.91C182.137 175.499 180.919 176.348 181.823 175.806C182.127 175.624 182.411 175.428 182.732 175.26C182.947 175.145 183.17 175.031 183.395 174.933C182.833 175.178 183.45 174.933 183.544 174.898C184.126 174.707 184.719 174.549 185.319 174.426C184.444 174.575 185.682 174.452 186.005 174.458C186.327 174.463 186.65 174.481 186.971 174.516C187.247 174.542 187.236 174.542 186.938 174.516C187.146 174.554 187.349 174.597 187.553 174.647C188.695 174.917 189.765 175.435 190.685 176.164C190.73 176.196 191.272 176.605 190.88 176.29C191.092 176.454 191.295 176.628 191.497 176.803C192.036 177.27 192.546 177.77 193.024 178.3C194.28 179.699 195.136 181.41 195.502 183.254C195.488 183.19 195.721 184.405 195.635 183.859C195.549 183.313 195.702 184.57 195.696 184.497C195.739 185.1 195.752 185.705 195.733 186.31C195.723 186.656 195.706 187.005 195.676 187.351C195.69 187.179 195.819 186.686 195.657 187.49C195.522 188.14 195.347 188.781 195.132 189.408C194.741 190.583 195.3 189.113 194.979 189.759C194.801 190.117 194.613 190.469 194.408 190.812C194.171 191.291 193.857 191.728 193.48 192.106C193.039 192.598 192.561 193.056 192.051 193.476C192.476 193.129 191.973 193.531 191.902 193.576C191.571 193.787 191.246 194.001 190.904 194.19C190.037 194.661 189.078 194.934 188.093 194.991C186.807 195.032 185.541 194.665 184.476 193.944C183.579 193.42 182.511 193.273 181.507 193.537C180.502 193.8 179.643 194.452 179.119 195.348C178.595 196.245 178.449 197.313 178.712 198.317C178.976 199.322 179.627 200.181 180.524 200.705C187.766 205.011 196.183 202.087 200.736 195.433C202.617 192.443 203.609 188.979 203.596 185.446C203.582 181.913 202.564 178.457 200.66 175.481C196.782 169.519 189.502 165.085 182.26 167.098C179.215 167.941 176.524 169.746 174.589 172.244C172.654 174.742 171.578 177.799 171.523 180.958C171.04 188.465 174.096 196.541 180.528 200.705C181.424 201.229 182.492 201.375 183.497 201.112C184.501 200.848 185.36 200.197 185.884 199.3C186.408 198.404 186.555 197.336 186.291 196.331C186.028 195.327 185.376 194.468 184.48 193.944L184.47 193.954Z" fill="#211715"/>
<path d="M207.671 145.677V189.314C207.671 194.353 215.501 194.361 215.501 189.314V145.677C215.501 140.639 207.671 140.631 207.671 145.677Z" fill="#211715"/>
<path d="M210.227 196.737C198.187 198.779 185.899 203.476 168.143 206.422C179.087 211.707 199.669 221.829 219.351 231.673C236.453 224.709 241.321 223.495 252.024 219.392C234.118 210.153 210.263 196.731 210.227 196.737Z" fill="white"/>
<path d="M209.188 192.963C194.993 195.422 181.334 200.249 167.103 202.646C163.846 203.196 163.245 208.391 166.17 209.801C177.74 215.383 189.267 221.074 200.765 226.783C204.221 228.497 207.673 230.213 211.122 231.933C212.931 232.836 214.73 233.76 216.546 234.642C217.473 235.145 218.514 235.403 219.569 235.39C220.624 235.377 221.658 235.095 222.573 234.57C227.972 232.393 233.408 230.313 238.882 228.33C243.615 226.625 248.366 224.969 253.066 223.172C255.961 222.066 257.251 217.691 254.001 216.018C244.727 211.224 235.549 206.246 226.402 201.217C221.688 198.628 217.053 195.694 212.206 193.356C207.687 191.18 203.711 197.929 208.254 200.117C213.101 202.455 217.736 205.389 222.45 207.978C231.599 213.007 240.777 217.983 250.049 222.779L250.985 215.622C240.111 219.78 229.105 223.518 218.314 227.903L221.33 228.295C204.3 219.78 187.271 211.306 170.122 203.044L169.186 210.198C183.417 207.8 197.074 202.973 211.271 200.515C212.268 200.233 213.115 199.569 213.627 198.669C214.14 197.768 214.278 196.701 214.011 195.699C213.716 194.709 213.049 193.871 212.15 193.361C211.251 192.851 210.19 192.709 209.188 192.963Z" fill="#211715"/>
<path d="M241.752 214.869C242.907 205.512 252.698 197.71 265.27 203.124C267.169 208.961 270.467 217.785 272.495 225.161C269.731 227.398 267.341 229.34 267.341 229.34C263.295 234.222 254.364 233.343 249.505 230.387C246.87 228.807 244.741 226.507 243.367 223.758C241.994 221.009 241.434 217.925 241.752 214.869Z" fill="white"/>
<path d="M263.916 198.458C258.67 196.785 252.98 197.211 248.041 199.646C243.81 201.895 240.558 205.629 238.912 210.13C235.036 220.308 241.165 231.771 251.138 235.422C257.239 237.657 265.584 237.33 270.109 232.094C270.821 231.348 271.217 230.356 271.217 229.325C271.217 228.294 270.821 227.303 270.109 226.556C269.371 225.831 268.377 225.425 267.341 225.425C266.306 225.425 265.312 225.831 264.574 226.556C264.378 226.774 264.182 226.973 263.986 227.187C263.857 227.332 263.264 227.803 263.873 227.341C263.459 227.638 263.024 227.904 262.571 228.136C262.375 228.238 261.692 228.459 262.405 228.22C262.184 228.295 261.968 228.373 261.745 228.439C261.18 228.609 260.605 228.74 260.023 228.831C260.806 228.708 260.023 228.831 259.813 228.831C259.51 228.843 259.208 228.868 258.905 228.874C258.355 228.874 257.809 228.845 257.259 228.823C257.063 228.823 256.262 228.723 257.026 228.823C256.785 228.792 256.544 228.749 256.305 228.706C255.656 228.586 255.013 228.434 254.379 228.25C253.874 228.103 253.383 227.929 252.892 227.747C253.645 228.024 252.375 227.496 252.164 227.384C251.715 227.138 251.282 226.866 250.866 226.568C249.912 225.907 251.181 226.842 250.658 226.41C250.388 226.184 250.122 225.959 249.864 225.723C249.488 225.38 249.124 225.026 248.777 224.654C248.628 224.495 248.482 224.331 248.337 224.166C248.337 224.166 247.665 223.344 248.031 223.814C248.397 224.284 247.779 223.456 247.775 223.448C247.658 223.278 247.542 223.105 247.432 222.931C247.133 222.464 246.859 221.98 246.612 221.483C246.501 221.262 246.399 221.036 246.297 220.813C246.35 220.931 246.579 221.596 246.36 220.937C246.211 220.479 246.047 220.032 245.921 219.566C245.823 219.202 245.745 218.834 245.669 218.464C245.655 218.394 245.522 217.486 245.608 218.155C245.692 218.803 245.589 217.836 245.581 217.709C245.543 216.841 245.561 215.971 245.634 215.105C245.583 215.984 245.612 215.239 245.698 214.802C245.801 214.27 245.932 213.744 246.09 213.226C246.195 212.882 246.332 212.547 246.446 212.205C246.72 211.373 246.125 212.729 246.422 212.269C246.54 212.085 246.618 211.856 246.718 211.662C246.903 211.3 247.103 210.947 247.317 210.603C247.456 210.376 248.39 209.106 247.708 209.952C248.216 209.312 248.772 208.711 249.37 208.155C249.517 208.018 250.459 207.246 250.024 207.579C249.513 207.971 250.249 207.428 250.296 207.397C250.529 207.244 250.758 207.09 250.997 206.945C251.388 206.702 251.807 206.479 252.226 206.274C252.275 206.25 253.127 205.882 252.535 206.123C251.978 206.354 252.892 206.001 253.005 205.962C253.511 205.788 254.026 205.641 254.548 205.52C254.892 205.442 256.253 205.267 255.282 205.356C256.44 205.263 257.604 205.252 258.764 205.322C258.932 205.322 259.531 205.412 258.719 205.299C259.06 205.348 259.398 205.406 259.735 205.473C260.438 205.614 261.129 205.796 261.816 206.001C262.311 206.138 262.829 206.176 263.339 206.112C263.85 206.049 264.342 205.885 264.79 205.631C265.237 205.378 265.629 205.038 265.945 204.632C266.261 204.227 266.494 203.763 266.631 203.267C266.767 202.771 266.805 202.253 266.742 201.743C266.678 201.233 266.515 200.74 266.261 200.293C266.007 199.846 265.667 199.453 265.262 199.137C264.856 198.821 264.392 198.588 263.896 198.452L263.916 198.458Z" fill="#211715"/>
<path d="M275.903 170.999C275.754 169.953 275.844 170.545 275.903 171.153C275.946 171.666 275.987 172.179 276.025 172.692C276.128 174.156 276.207 175.628 276.275 177.092C276.422 180.306 276.53 183.53 276.453 186.746C276.44 187.377 276.418 188.005 276.377 188.633C276.353 188.999 276.33 190.395 276.334 189.346C276.334 190.383 275.98 189.346 276.479 189.262C275.929 189.363 274.876 190.489 274.302 190.953C270.366 194.13 266.541 197.442 262.597 200.609C262.097 201.091 261.74 201.702 261.563 202.373C261.385 203.044 261.395 203.752 261.59 204.418C264.035 211.835 266.801 219.148 268.864 226.686C269.03 227.26 269.324 227.789 269.723 228.233C270.123 228.678 270.618 229.026 271.171 229.252C271.724 229.478 272.322 229.576 272.918 229.538C273.515 229.5 274.095 229.328 274.615 229.034C290.848 219.954 313.533 210.701 313.051 188.67C312.629 178.981 311.107 169.371 308.514 160.025C306.479 151.116 302.7 142.698 297.396 135.256C290.975 126.839 283.32 118.44 273.84 113.439C269.385 111.09 265.423 117.845 269.888 120.2C277.451 124.189 283.621 130.615 288.996 137.163C294.024 143.419 297.737 150.625 299.915 158.35C302.233 166.404 303.856 174.643 304.767 182.974C305.327 187.637 305.77 192.66 303.941 197.113C302.351 200.564 300.015 203.62 297.102 206.06C289.407 213.036 279.636 217.253 270.663 222.273L276.414 224.622C274.351 217.084 271.585 209.771 269.14 202.355L268.132 206.162C272.35 202.776 276.428 199.217 280.66 195.846C283.596 193.515 284.115 191.239 284.257 187.647C284.55 181.398 284.284 175.137 283.463 168.936C283.183 167.937 282.52 167.089 281.618 166.576C280.717 166.062 279.649 165.926 278.647 166.195C277.66 166.492 276.824 167.158 276.314 168.055C275.804 168.951 275.658 170.01 275.907 171.01L275.903 170.999Z" fill="#211715"/>
<path d="M294.039 88.5343C296.596 80.5253 296.654 71.9274 294.204 63.8849C291.754 55.8424 286.913 48.7367 280.325 43.5135C273.83 38.5477 266.162 35.3438 258.065 34.2121C249.968 33.0804 241.716 34.0593 234.108 37.054C218.057 43.6387 207.992 58.6248 206.246 75.6701C205.311 84.1287 206.631 92.6841 210.074 100.467C213.516 108.25 218.957 114.983 225.844 119.982C241.867 131.173 265.037 129.204 279.209 115.923C282.895 112.47 277.35 106.942 273.674 110.385C268.423 115.096 261.892 118.143 254.909 119.141C247.925 120.139 240.803 119.042 234.443 115.989C221.265 109.406 213.907 95.2659 213.827 80.8298C213.751 66.9536 220.353 53.4494 232.585 46.4379C238.475 43.195 245.097 41.5156 251.82 41.5598C258.544 41.604 265.143 43.3704 270.99 46.6904C277.775 50.5007 283.029 56.5459 285.856 63.7959C288.683 71.0458 288.909 79.0519 286.495 86.4496C284.944 91.2551 292.5 93.3143 294.044 88.5303L294.039 88.5343Z" fill="#211715"/>
<path d="M286.115 92.1908C287.037 92.2573 285.686 92.0205 286.506 92.2358C286.855 92.3259 287.207 92.4002 287.552 92.5098C287.747 92.5744 288.55 92.9561 287.957 92.6547C288.28 92.8191 288.601 92.9855 288.908 93.1773C289.049 93.2635 289.816 93.8194 289.3 93.4063C289.582 93.6346 289.851 93.8783 290.106 94.1365C290.365 94.3909 290.608 94.6609 290.834 94.9449C290.376 94.3577 290.975 95.2052 291.055 95.3364C291.245 95.646 291.415 95.967 291.564 96.2975C291.253 95.6006 291.633 96.5696 291.678 96.7281C291.782 97.0811 291.863 97.4408 291.919 97.8047C291.807 97.0335 291.907 98.1159 291.919 98.2784C291.919 98.6699 291.901 99.0418 291.88 99.4254C291.833 100.3 292.013 99.1259 291.797 99.907C291.623 100.545 291.283 101.778 291.169 102.043C290.632 103.205 289.93 104.284 289.086 105.247C288.129 106.324 286.977 107.213 285.692 107.866C284.383 108.645 282.966 109.229 281.488 109.598C280.667 109.83 279.834 110.015 278.992 110.152C278.714 110.195 278.714 110.195 278.992 110.152C278.784 110.178 278.577 110.197 278.369 110.215C277.89 110.256 277.41 110.275 276.931 110.287C275.892 110.287 274.897 110.7 274.162 111.434C273.428 112.168 273.016 113.164 273.016 114.202C273.016 115.24 273.428 116.236 274.162 116.97C274.897 117.704 275.892 118.117 276.931 118.117C286.27 117.888 295.706 112.832 298.879 103.671C299.638 101.584 299.911 99.3517 299.677 97.1436C299.443 94.9354 298.708 92.8097 297.529 90.9282C296.262 89.0289 294.573 87.448 292.595 86.3088C290.616 85.1696 288.401 84.5031 286.123 84.3611C285.086 84.3667 284.094 84.781 283.361 85.514C282.628 86.2469 282.214 87.2394 282.208 88.2759C282.232 89.3066 282.653 90.2882 283.382 91.0172C284.111 91.7461 285.092 92.1664 286.123 92.1908H286.115Z" fill="#211715"/>
<path d="M234.631 93.0522C234.581 93.9678 234.329 94.861 233.892 95.6673C233.456 96.4737 232.846 97.173 232.106 97.7147C231.055 98.3884 229.785 98.6284 228.561 98.3842C227.726 98.2359 226.937 97.8927 226.259 97.3825C225.581 96.8724 225.033 96.2096 224.66 95.448C224.118 94.2264 223.978 92.8646 224.26 91.5583C224.541 90.2521 225.229 89.0687 226.226 88.1782C227.197 87.3705 228.438 86.9602 229.699 87.0295C230.96 87.0989 232.149 87.6428 233.026 88.552C233.61 89.1361 234.058 89.843 234.335 90.6213C234.613 91.3996 234.714 92.23 234.631 93.0522Z" fill="#211715"/>
<path d="M258.431 97.9124C258.381 98.8279 258.128 99.7209 257.692 100.527C257.255 101.333 256.645 102.033 255.906 102.575C254.855 103.25 253.584 103.491 252.359 103.246C251.524 103.097 250.736 102.754 250.059 102.244C249.381 101.734 248.834 101.071 248.46 100.31C247.919 99.0883 247.779 97.7261 248.06 96.4196C248.341 95.113 249.03 93.9293 250.026 93.0384C250.997 92.2307 252.238 91.8205 253.499 91.8902C254.76 91.9599 255.948 92.5044 256.824 93.4142C257.408 93.9982 257.856 94.7046 258.133 95.4825C258.411 96.2605 258.513 97.0904 258.431 97.9124Z" fill="#211715"/>
<path d="M257.957 71.6125C259.215 74.9535 260.989 78.0764 263.215 80.8672C265.163 83.102 267.565 84.8952 270.262 86.1268C271.183 86.6286 272.259 86.7683 273.278 86.5183C274.021 86.3139 274.687 85.8947 275.193 85.3134C275.699 84.732 276.022 84.0143 276.122 83.2502C276.221 82.4861 276.093 81.7096 275.754 81.0179C275.414 80.3262 274.878 79.7502 274.212 79.362C272.887 78.7484 271.631 77.9951 270.465 77.1149L271.248 77.7275C270.118 76.8411 269.104 75.8165 268.228 74.6779L268.839 75.4706C267.418 73.5154 266.243 71.3926 265.341 69.1501L265.732 70.0838C265.654 69.8998 265.576 69.7138 265.499 69.5259C265.196 68.5551 264.559 67.723 263.701 67.177C263.257 66.9173 262.766 66.7476 262.256 66.6777C261.746 66.6078 261.228 66.639 260.731 66.7695C260.233 66.9 259.766 67.1273 259.356 67.4384C258.947 67.7495 258.602 68.1382 258.343 68.5824C258.072 69.0305 257.897 69.5301 257.83 70.0494C257.763 70.5687 257.804 71.0964 257.952 71.5988L257.957 71.6125Z" fill="#211715"/>
<path d="M259.75 67.1984C255.282 69.5473 247.64 71.3775 242.901 70.1933L245.25 75.9442C246.757 73.2508 248.401 69.5062 245.882 66.8422C242.975 63.7651 238.835 65.932 235.508 66.8422C227.774 68.8565 219.766 69.6041 211.793 69.056C206.759 68.7761 206.775 76.6058 211.793 76.8857C217.096 77.2007 222.417 77.0172 227.686 76.3376C230.168 76.0107 232.632 75.5879 235.071 75.0164C236.336 74.7228 237.59 74.3965 238.835 74.0377C239.534 73.8419 240.227 73.6168 240.918 73.3917C241.196 73.3036 241.474 73.2116 241.75 73.1157C242.298 72.92 242.304 72.92 241.769 73.1157L240.043 72.1096L240.335 72.3738L239.329 70.6474C238.937 69.7117 239.669 69.794 239.223 70.5789C238.963 71.0408 238.737 71.5243 238.477 71.9882C238.183 72.5086 238.01 73.0888 237.973 73.6854C237.935 74.2819 238.032 74.8793 238.258 75.4327C238.484 75.9861 238.833 76.4811 239.278 76.8805C239.722 77.28 240.252 77.5736 240.826 77.7392C244.648 78.465 248.579 78.3983 252.375 77.5434C256.321 76.9524 260.149 75.7408 263.716 73.9535C268.175 71.6046 264.223 64.8417 259.764 67.1925L259.75 67.1984Z" fill="#211715"/>
</svg>
