<svg width="409" height="409" viewBox="0 0 409 409" fill="none" xmlns="http://www.w3.org/2000/svg">
<g clip-path="url(#clip0_3389_691)">
<path d="M32.2895 161.447H15.0683C10.3129 161.447 6.45776 157.592 6.45776 152.837V101.173H40.9V152.837C40.9 157.593 37.0449 161.447 32.2895 161.447Z" fill="#B9BAA6"/>
<path d="M118.395 368.1H75.342V101.174H118.395V368.1Z" fill="#DDB900"/>
<path d="M170.058 368.1V402.542H15.0684V368.1C15.0684 363.344 18.9235 359.489 23.6789 359.489H161.447C166.203 359.489 170.058 363.344 170.058 368.1Z" fill="#B9BAA6"/>
<path d="M402.543 281.995V307.827C402.543 312.582 398.687 316.438 393.932 316.438H350.879V359.49H376.711C381.466 359.49 385.321 363.346 385.321 368.101V402.543H221.721V359.49V325.048C221.721 320.293 225.577 316.438 230.332 316.438H290.606V281.995C290.606 277.24 294.461 273.385 299.217 273.385H393.932C398.687 273.385 402.543 277.239 402.543 281.995Z" fill="#E7E8D4"/>
<path d="M402.543 281.995V307.827C402.543 312.582 398.687 316.438 393.932 316.438H350.879V359.49H221.721V325.048C221.721 320.293 225.577 316.438 230.332 316.438H290.606V281.995C290.606 277.24 294.461 273.385 299.217 273.385H393.932C398.687 273.385 402.543 277.239 402.543 281.995Z" fill="#D3D5BB"/>
<path d="M402.542 281.995V307.827C402.542 312.582 398.687 316.438 393.932 316.438H290.605V281.995C290.605 277.24 294.46 273.385 299.216 273.385H393.931C398.687 273.385 402.542 277.239 402.542 281.995Z" fill="#B9BAA6"/>
<path d="M402.542 23.6787C402.542 33.1895 394.833 40.8998 385.321 40.8998H305.504C306.972 43.4345 307.826 46.3702 307.826 49.5104C307.826 59.0212 300.117 66.7315 290.605 66.7315H161.447C151.936 66.7315 144.226 59.022 144.226 49.5104C144.226 39.9995 151.936 32.2892 161.447 32.2892H258.485C257.017 29.7545 256.163 26.8189 256.163 23.6787C256.163 14.1678 263.872 6.45752 273.384 6.45752H385.32C394.832 6.45752 402.542 14.1678 402.542 23.6787Z" fill="#C5EAD4"/>
<path d="M103.716 30.0823C104.935 26.7304 108.642 25.0025 111.992 26.2207L129.213 32.4835C132.565 33.7026 134.294 37.4075 133.074 40.7594C132.121 43.382 129.643 45.0124 127.005 45.0124C126.272 45.0124 125.527 44.887 124.798 44.6217L107.577 38.3589C104.226 37.1399 102.496 33.435 103.716 30.0823ZM161.447 73.1894H290.605C303.661 73.1894 314.284 62.5674 314.284 49.5106C314.284 45.3662 313.18 41.2691 311.092 37.6639C309.304 34.5781 305.355 33.5236 302.267 35.3114C299.181 37.0992 298.127 41.0502 299.915 44.1361C300.879 45.8016 301.368 47.6094 301.368 49.5106C301.368 55.4459 296.54 60.274 290.605 60.274H161.448C155.513 60.274 150.685 55.4459 150.685 49.5106C150.685 43.5753 155.512 38.7464 161.447 38.7464H258.485C260.794 38.7464 262.926 37.5146 264.08 35.5143C265.233 33.514 265.23 31.0504 264.073 29.0526C263.108 27.387 262.62 25.5793 262.62 23.6781C262.62 17.7428 267.448 12.9147 273.384 12.9147H385.32C391.256 12.9147 396.084 17.7428 396.084 23.6781C396.084 29.6134 391.256 34.4415 385.32 34.4415H330.213C326.646 34.4415 323.755 37.3332 323.755 40.8992C323.755 44.4652 326.646 47.3569 330.213 47.3569H385.32C398.376 47.3569 408.999 36.7349 408.999 23.6781C408.999 10.6212 398.377 0 385.321 0H273.385C260.329 0 249.706 10.622 249.706 23.6789C249.706 24.3986 249.739 25.1168 249.805 25.8317H161.447C148.391 25.8317 137.768 36.4537 137.768 49.5106C137.768 62.5674 148.391 73.1894 161.447 73.1894ZM409 281.995V307.827C409 316.135 402.24 322.895 393.932 322.895H357.337V340.762C357.337 344.328 354.446 347.219 350.879 347.219C347.311 347.219 344.421 344.328 344.421 340.762V322.895H230.332C229.145 322.895 228.179 323.861 228.179 325.048V353.032H274.03C277.598 353.032 280.488 355.924 280.488 359.49C280.488 363.056 277.598 365.948 274.03 365.948H228.179V396.085H378.863V368.1C378.863 366.914 377.898 365.947 376.711 365.947H299.431C295.864 365.947 292.973 363.055 292.973 359.489C292.973 355.923 295.864 353.032 299.431 353.032H376.711C385.019 353.032 391.779 359.792 391.779 368.1V396.085H402.542C406.11 396.085 409 398.976 409 402.542C409 406.109 406.11 409 402.542 409H144.226C140.659 409 137.768 406.108 137.768 402.542C137.768 398.975 140.66 396.085 144.226 396.085H163.6V368.1C163.6 366.914 162.634 365.947 161.447 365.947H23.6789C22.4926 365.947 21.5261 366.913 21.5261 368.1V396.085H118.394C121.961 396.085 124.852 398.976 124.852 402.542C124.852 406.109 121.96 409 118.394 409H6.45776C2.89179 409 3.3231e-05 406.108 3.3231e-05 402.542C3.3231e-05 398.975 2.89179 396.085 6.45776 396.085H8.6106V368.1C8.6106 359.791 15.3711 353.032 23.6789 353.032H68.8838V325.197C68.8814 325.097 68.8814 324.997 68.8838 324.896V289.034C68.8814 288.933 68.8814 288.833 68.8838 288.732V252.869C68.8814 252.768 68.8814 252.669 68.8838 252.568V216.705C68.8814 216.605 68.8814 216.505 68.8838 216.404V180.542C68.8814 180.441 68.8814 180.341 68.8838 180.24V144.378C68.8814 144.277 68.8814 144.177 68.8838 144.077V107.633H47.3578V152.838C47.3578 161.147 40.5973 167.906 32.2895 167.906H15.0683C6.76052 167.905 3.3231e-05 161.145 3.3231e-05 152.837V101.203C-0.000765597 100.96 3.31393e-05 98.7256 1.62086 96.8947L61.8717 28.0365C64.2218 25.3524 68.3006 25.0816 70.9839 27.4286C73.668 29.7771 73.9396 33.8575 71.5918 36.5408L20.6897 94.7155H81.8V6.45773C81.8 2.89176 84.6918 0 88.2578 0C91.8237 0 94.7155 2.89176 94.7155 6.45773V94.7155H262.559L253.125 91.2853C249.773 90.0663 248.044 86.3613 249.263 83.0094C250.482 79.6583 254.186 77.9289 257.54 79.1479L300.354 94.7155H342.269C345.837 94.7155 348.727 97.6072 348.727 101.173C348.727 104.74 345.837 107.631 342.269 107.631H340.116V204.5C340.116 208.067 337.226 210.958 333.659 210.958C327.723 210.958 322.895 215.786 322.895 221.721C322.895 227.656 327.723 232.485 333.659 232.485C339.594 232.485 344.422 227.656 344.422 221.721C344.422 218.154 347.312 215.263 350.88 215.263C354.447 215.263 357.337 218.155 357.337 221.721C357.337 234.778 346.715 245.4 333.659 245.4C320.603 245.4 309.98 234.778 309.98 221.721C309.98 210.902 317.273 201.755 327.201 198.938V107.632H299.366C299.267 107.634 299.169 107.634 299.066 107.632H124.853V353.032H161.448C169.757 353.032 176.516 359.792 176.516 368.1V396.085H215.263V325.048C215.263 316.739 222.024 309.98 230.332 309.98H393.932C395.119 309.98 396.085 309.014 396.085 307.827V281.995C396.085 280.809 395.12 279.842 393.932 279.842H299.215C298.028 279.842 297.063 280.808 297.063 281.995V297.494C297.063 301.061 294.172 303.952 290.605 303.952C287.037 303.952 284.147 301.06 284.147 297.494V281.995C284.147 273.686 290.908 266.927 299.215 266.927H393.931C402.24 266.926 409 273.686 409 281.995ZM34.4423 107.632H12.9155V152.837C12.9155 154.023 13.8813 154.989 15.0683 154.989H32.2895C33.4757 154.989 34.4423 154.024 34.4423 152.837V107.632ZM111.937 107.632H81.8V135.266L99.1314 129.489C102.514 128.362 106.172 130.19 107.3 133.574C108.428 136.957 106.6 140.615 103.215 141.743L81.8 148.882V171.431L99.1314 165.654C102.514 164.526 106.172 166.354 107.3 169.739C108.428 173.122 106.6 176.78 103.215 177.908L81.8 185.046V207.595L99.1314 201.818C102.514 200.691 106.172 202.519 107.3 205.904C108.428 209.287 106.6 212.944 103.215 214.072L81.8 221.211V243.76L99.1314 237.983C102.514 236.855 106.172 238.683 107.3 242.068C108.428 245.451 106.6 249.109 103.215 250.237L81.8 257.375V279.925L99.1314 274.147C102.514 273.02 106.172 274.847 107.3 278.233C108.428 281.616 106.6 285.274 103.215 286.401L81.8 293.54V316.089L99.1314 310.312C102.514 309.184 106.172 311.013 107.3 314.396C108.428 317.779 106.6 321.437 103.215 322.565L81.8 329.704V353.032H111.937V107.632Z" fill="black"/>
</g>
<defs>
<clipPath id="clip0_3389_691">
<rect width="409" height="409" fill="white"/>
</clipPath>
</defs>
</svg>
