<svg width="253" height="219" viewBox="0 0 253 219" fill="none" xmlns="http://www.w3.org/2000/svg">
<g filter="url(#filter0_d_2040_11576)">
<path d="M45.7445 126.531V41.9727H21.3849C9.61052 41.9727 0 51.8651 0 63.9359V166.678C0 178.749 9.61052 188.642 21.3849 188.642H52.0215V211.271C52.0215 212.785 52.9229 214.146 54.2743 214.721C55.6263 215.295 57.2179 214.963 58.2388 213.904L82.8687 188.642H135.492C147.266 188.642 156.878 178.749 156.878 166.678V166.647H85.1215C63.405 166.647 45.7445 148.646 45.7445 126.531Z" fill="black"/>
<path d="M228.647 0H85.1205C71.7268 0 60.7678 11.2427 60.7678 24.9822V126.528C60.7678 140.269 71.7268 151.511 85.1205 151.511H162.3C164.98 151.511 167.548 152.587 169.428 154.498L203.722 189.352C204.907 190.567 206.689 190.93 208.236 190.273C209.784 189.616 210.794 188.067 210.794 186.348V161.511C210.794 155.989 215.271 151.511 220.794 151.511H228.647C242.041 151.511 253 140.269 253 126.528V24.9822C253 11.2427 242.04 0 228.647 0ZM182.415 113.45C182.415 116.792 179.706 119.501 176.364 119.501H102.863C99.5209 119.501 96.8119 116.792 96.8119 113.45C96.8119 110.109 99.5209 107.4 102.863 107.4H176.364C179.706 107.4 182.415 110.109 182.415 113.45ZM216.956 75.634C216.956 78.9755 214.247 81.6843 210.906 81.6843H102.862C99.5207 81.6843 96.8119 78.9755 96.8119 75.634C96.8119 72.2925 99.5207 69.5837 102.862 69.5837H210.906C214.247 69.5837 216.956 72.2925 216.956 75.634ZM216.956 37.8167C216.956 41.1584 214.247 43.8673 210.905 43.8673H102.862C99.5208 43.8673 96.8119 41.1584 96.8119 37.8167C96.8119 34.4751 99.5208 31.7662 102.862 31.7662H210.905C214.247 31.7662 216.956 34.4751 216.956 37.8167Z" fill="black"/>
</g>
<defs>
<filter id="filter0_d_2040_11576" x="0" y="0" width="253" height="219" filterUnits="userSpaceOnUse" color-interpolation-filters="sRGB">
<feFlood flood-opacity="0" result="BackgroundImageFix"/>
<feColorMatrix in="SourceAlpha" type="matrix" values="0 0 0 0 0 0 0 0 0 0 0 0 0 0 0 0 0 0 127 0" result="hardAlpha"/>
<feOffset dy="4"/>
<feComposite in2="hardAlpha" operator="out"/>
<feColorMatrix type="matrix" values="0 0 0 0 0.231575 0 0 0 0 0.954948 0 0 0 0 0.781833 0 0 0 1 0"/>
<feBlend mode="normal" in2="BackgroundImageFix" result="effect1_dropShadow_2040_11576"/>
<feBlend mode="normal" in="SourceGraphic" in2="effect1_dropShadow_2040_11576" result="shape"/>
</filter>
</defs>
</svg>
