<svg width="183" height="204" viewBox="0 0 183 204" fill="none" xmlns="http://www.w3.org/2000/svg">
<g filter="url(#filter0_d_2040_11588)">
<path fill-rule="evenodd" clip-rule="evenodd" d="M173.366 108.942L166.895 133.091C159.343 161.28 155.565 175.374 147.004 184.515C140.244 191.732 131.495 196.784 121.865 199.029C120.661 199.31 119.44 199.526 118.188 199.68C106.749 201.091 92.7925 197.351 67.385 190.544C39.1962 182.99 25.1019 179.214 15.9609 170.652C8.74311 163.892 3.69211 155.144 1.44661 145.512C-1.39739 133.315 2.37912 119.221 9.93224 91.0329L16.4027 66.8846C17.4887 62.8317 18.4974 59.0675 19.4526 55.5701C25.141 34.7446 28.9636 23.2872 36.2939 15.4609C43.0537 8.24311 51.8025 3.19211 61.4337 0.946615C73.63 -1.89739 87.725 1.87911 115.914 9.43224C144.101 16.9854 158.196 20.7619 167.338 29.3234C174.555 36.0835 179.606 44.8321 181.851 54.4629C184.695 66.66 180.919 80.7542 173.366 108.942ZM51.155 97.5736C52.495 92.5724 57.6362 89.6044 62.6375 90.9445L123.007 107.121C128.009 108.461 130.976 113.601 129.636 118.602C128.296 123.604 123.156 126.571 118.155 125.231L57.7837 109.055C52.7825 107.715 49.815 102.575 51.155 97.5736ZM41.445 133.791C42.785 128.79 47.925 125.822 52.9263 127.162L89.1488 136.869C94.15 138.209 97.1175 143.349 95.7775 148.35C94.4375 153.351 89.2975 156.32 84.2962 154.98L48.0737 145.274C43.0725 143.934 40.1037 138.792 41.445 133.791Z" fill="black"/>
</g>
<defs>
<filter id="filter0_d_2040_11588" x="0.5" y="0" width="182.298" height="203.976" filterUnits="userSpaceOnUse" color-interpolation-filters="sRGB">
<feFlood flood-opacity="0" result="BackgroundImageFix"/>
<feColorMatrix in="SourceAlpha" type="matrix" values="0 0 0 0 0 0 0 0 0 0 0 0 0 0 0 0 0 0 127 0" result="hardAlpha"/>
<feOffset dy="4"/>
<feComposite in2="hardAlpha" operator="out"/>
<feColorMatrix type="matrix" values="0 0 0 0 0.231575 0 0 0 0 0.954948 0 0 0 0 0.781833 0 0 0 1 0"/>
<feBlend mode="normal" in2="BackgroundImageFix" result="effect1_dropShadow_2040_11588"/>
<feBlend mode="normal" in="SourceGraphic" in2="effect1_dropShadow_2040_11588" result="shape"/>
</filter>
</defs>
</svg>
