<svg width="201" height="201" viewBox="0 0 201 201" fill="none" xmlns="http://www.w3.org/2000/svg">
<g clip-path="url(#clip0_2797_7695)">
<path d="M62.7003 195.768L196.082 136.984L137.298 3.60265L3.91673 62.3862L62.7003 195.768Z" fill="#ECEDEF"/>
<path d="M33.3331 49.4235L17.2676 92.6624L52.678 172.998L86.1392 185.43L170.403 148.289L184.43 110.538L151.543 35.9283L104.014 18.2686L33.3331 49.4235Z" fill="#D9DCDF"/>
<path d="M6.36584 146.636L142.996 197.402L193.762 60.7721L57.1321 10.0058L6.36584 146.636Z" fill="#D8ED8C"/>
<path d="M94.4132 116.124L73.332 127.835L85.0441 106.754L120.179 71.6191L129.548 80.9886L94.4132 116.124Z" fill="#ECEDEF"/>
<path d="M129.549 80.9873L125.246 76.6846L75.0498 126.88L94.4142 116.122L129.549 80.9873Z" fill="#D9DCDF"/>
<path d="M152.971 90.3571L110.81 48.1956L164.683 13.0605L188.106 36.4843L152.971 90.3571Z" fill="#509FE8"/>
<path d="M164.683 13.0605L151.911 21.3902L179.777 49.2557L188.106 36.4843L164.683 13.0605Z" fill="#4D8CCF"/>
<path d="M110.811 48.1941L152.972 90.3557L161.635 77.0729L124.093 39.5312L110.811 48.1941Z" fill="#4D8CCF"/>
<path d="M185.765 38.8265L162.342 15.4032C159.755 12.8161 159.755 8.62117 162.342 6.03407C164.929 3.44698 169.124 3.44698 171.711 6.03407L195.134 29.4574C197.721 32.0445 197.721 36.2394 195.134 38.8265C192.547 41.414 188.353 41.414 185.765 38.8265Z" fill="#509FE8"/>
<path d="M152.972 104.411L96.7568 48.1954L101.442 43.5106C104.029 40.9235 108.224 40.9235 110.811 43.5106L157.657 90.3569C160.244 92.944 160.244 97.1389 157.657 99.726L152.972 104.411Z" fill="#509FE8"/>
<path d="M193.435 123.269C192.743 121.7 190.91 120.989 189.341 121.68C187.771 122.372 187.06 124.205 187.752 125.775L191.986 135.381L164.921 147.311L179.705 107.519L181.911 112.524C182.63 114.154 184.64 114.85 186.215 114.012C187.631 113.258 188.242 111.486 187.595 110.019L182.81 99.1636L196.672 61.854C197.27 60.2462 196.451 58.4587 194.843 57.8611L181.183 52.7853L187.328 43.3631C188.341 43.708 189.395 43.8822 190.448 43.8822C192.946 43.8822 195.433 42.9185 197.329 41.0221C201.124 37.2279 201.124 31.0549 197.329 27.2608L173.906 3.83784C170.112 0.0441083 163.939 0.0444987 160.145 3.83784C157.449 6.53393 156.645 10.4222 157.807 13.8374L148.015 20.2237L140.134 2.34605C139.452 0.799964 137.59 0.0749673 136.04 0.756996L92.64 19.8874L58.2167 7.0972C56.6296 6.50814 54.8128 7.34291 54.2237 8.92649L41.83 42.2834L2.66963 59.5446C1.12354 60.2263 0.39776 62.0899 1.08057 63.6396L18.8864 104.035L3.45986 145.553C2.87041 147.139 3.70556 148.957 5.28915 149.545L20.4254 155.169C22.0781 155.784 23.9516 154.854 24.4738 153.175C24.957 151.622 24.1113 149.913 22.5891 149.347L10.3637 144.805L58.9647 14.0011L121.773 37.3385L114.059 42.3693L113.006 41.3154C109.211 37.5217 103.038 37.5221 99.2442 41.3154L94.5595 45.9998C93.3638 47.1959 93.3638 49.1959 94.5595 50.3919L115.787 71.6192L82.8478 104.558C82.6435 104.762 82.4689 104.994 82.3291 105.246L70.6174 126.327C69.9842 127.467 70.1436 128.919 71.008 129.894C71.9623 130.971 73.5811 131.25 74.84 130.55L95.9212 118.839C96.1736 118.698 96.4048 118.523 96.6091 118.32L110.94 103.989L144.764 116.557C146.417 117.171 148.29 116.242 148.812 114.562C149.296 113.01 148.45 111.3 146.928 110.735L115.772 99.1586L129.549 85.3813L150.776 106.609C151.971 107.804 153.973 107.804 155.168 106.608L159.853 101.924C163.647 98.1296 163.647 91.9566 159.853 88.1625L158.799 87.109L177.704 58.12L189.769 62.6028L141.168 193.405L35.8402 154.271C34.232 153.672 32.4449 154.492 31.8472 156.1C31.2496 157.708 32.0687 159.495 33.6765 160.093L45.5374 164.5L59.8674 197.011C60.5491 198.557 62.4124 199.282 63.9616 198.6L97.5114 183.812L141.915 200.31C143.502 200.9 145.319 200.066 145.908 198.48L161.905 155.428L197.333 139.812C198.879 139.131 199.604 137.267 198.922 135.717L193.435 123.269ZM38.8144 50.4009L21.9906 95.6797L8.01609 63.9763L38.8144 50.4009ZM164.537 8.23001C165.909 6.85814 168.142 6.85736 169.514 8.23001L192.938 31.653C194.31 33.0248 194.31 35.258 192.938 36.6307C191.659 37.9096 189.638 38.0166 188.237 36.8795C188.138 36.799 164.369 13.03 164.289 12.9308C163.151 11.5296 163.258 9.50891 164.537 8.23001ZM142.743 23.6624L128.246 33.1166L100.996 22.9913L135.704 7.69212L142.743 23.6624ZM107.957 98.1871L92.5247 113.62L81.3256 119.842L87.5474 108.642L120.179 76.011L125.156 80.9883L107.957 98.1871ZM155.46 97.5308L152.971 100.02L101.148 48.1959L103.636 45.7072C105.009 44.3349 107.242 44.3349 108.614 45.7072L135.251 72.3446C136.514 73.6071 138.647 73.5227 139.808 72.1665C140.849 70.9508 140.773 69.0833 139.643 67.9524L118.547 46.8568L161.433 18.8878L182.279 39.7338L154.309 82.6199L149.58 77.8911C148.367 76.6786 146.401 76.6786 145.189 77.8911C143.976 79.1043 143.976 81.0703 145.189 82.2832L155.46 92.5543C156.833 93.9258 156.833 96.1586 155.46 97.5308ZM53.655 167.516L89.156 180.707L64.2987 191.663L53.655 167.516Z" fill="black"/>
<path d="M106.55 74.0865C108.203 74.7009 110.076 73.7712 110.599 72.092C111.082 70.5392 110.236 68.8299 108.714 68.2642L69.2128 53.5881C67.605 52.9901 65.8175 53.81 65.2198 55.4174C64.6222 57.0252 65.4413 58.8127 67.0491 59.4104L106.55 74.0865Z" fill="black"/>
<path d="M55.9913 80.2591C55.3937 81.8669 56.2128 83.6544 57.8206 84.252L79.5569 92.3281C81.2096 92.9426 83.083 92.0129 83.6053 90.3336C84.0885 88.7809 83.2428 87.0715 81.7205 86.5059L59.9843 78.4298C58.3757 77.8321 56.5886 78.6516 55.9913 80.2591Z" fill="black"/>
<path d="M46.7618 105.1C46.1642 106.708 46.9833 108.495 48.5911 109.093L70.116 117.09C71.7688 117.705 73.6422 116.775 74.1645 115.096C74.6477 113.543 73.802 111.834 72.2797 111.268L50.7548 103.271C49.1466 102.673 47.3591 103.493 46.7618 105.1Z" fill="black"/>
<path d="M37.5314 129.941C36.9337 131.549 37.7529 133.336 39.3607 133.934L126.305 166.239C127.958 166.853 129.831 165.924 130.353 164.244C130.836 162.692 129.991 160.982 128.469 160.417L41.5243 128.112C39.9161 127.514 38.129 128.333 37.5314 129.941Z" fill="black"/>
<path d="M113.799 133.321C115.452 133.936 117.325 133.006 117.848 131.327C118.331 129.774 117.486 128.064 115.963 127.499L106.647 124.038C105.039 123.439 103.252 124.259 102.654 125.867C102.057 127.475 102.876 129.262 104.484 129.86L113.799 133.321Z" fill="black"/>
<path d="M135.534 141.398C137.187 142.012 139.06 141.082 139.583 139.403C140.066 137.85 139.221 136.141 137.698 135.575L125.277 130.96C123.669 130.362 121.882 131.182 121.284 132.79C120.687 134.397 121.506 136.185 123.114 136.782L135.534 141.398Z" fill="black"/>
</g>
<defs>
<clipPath id="clip0_2797_7695">
<rect width="200" height="200" fill="white" transform="translate(0.5 0.5)"/>
</clipPath>
</defs>
</svg>
