<svg width="176" height="230" viewBox="0 0 176 230" fill="none" xmlns="http://www.w3.org/2000/svg">
<g filter="url(#filter0_d_2040_11568)">
<path fill-rule="evenodd" clip-rule="evenodd" d="M175.5 200.5C175.5 214.307 164.307 225.5 150.5 225.5H25.5C11.6931 225.5 0.5 214.307 0.5 200.5V25.5C0.5 11.6929 11.6931 0.5 25.5 0.5H113L175.5 63V200.5ZM119.25 24.4277L151.572 56.75H119.25V24.4277ZM68.7694 66.8462C67.7987 64.5169 65.5231 63 63 63C60.4769 63 58.2012 64.5169 57.2306 66.8462L25.9806 141.846C24.6531 145.032 26.16 148.692 29.3462 150.019C32.5325 151.347 36.1919 149.84 37.5194 146.654L43.7294 131.75H82.2706L88.4806 146.654C89.8081 149.84 93.4675 151.347 96.6537 150.019C99.84 148.692 101.347 145.032 100.019 141.846L68.7694 66.8462ZM31.75 163C28.2981 163 25.5 165.798 25.5 169.25C25.5 172.702 28.2981 175.5 31.75 175.5H144.25C147.702 175.5 150.5 172.702 150.5 169.25C150.5 165.798 147.702 163 144.25 163H31.75ZM25.5 194.25C25.5 190.798 28.2981 188 31.75 188H106.75C110.202 188 113 190.798 113 194.25C113 197.702 110.202 200.5 106.75 200.5H31.75C28.2981 200.5 25.5 197.702 25.5 194.25ZM125.5 100.5C128.952 100.5 131.75 103.298 131.75 106.75V119.25H144.25C147.702 119.25 150.5 122.048 150.5 125.5C150.5 128.952 147.702 131.75 144.25 131.75H131.75V144.25C131.75 147.702 128.952 150.5 125.5 150.5C122.048 150.5 119.25 147.702 119.25 144.25V131.75H106.75C103.298 131.75 100.5 128.952 100.5 125.5C100.5 122.048 103.298 119.25 106.75 119.25H119.25V106.75C119.25 103.298 122.048 100.5 125.5 100.5Z" fill="black"/>
</g>
<defs>
<filter id="filter0_d_2040_11568" x="0.5" y="0.5" width="175" height="229" filterUnits="userSpaceOnUse" color-interpolation-filters="sRGB">
<feFlood flood-opacity="0" result="BackgroundImageFix"/>
<feColorMatrix in="SourceAlpha" type="matrix" values="0 0 0 0 0 0 0 0 0 0 0 0 0 0 0 0 0 0 127 0" result="hardAlpha"/>
<feOffset dy="4"/>
<feComposite in2="hardAlpha" operator="out"/>
<feColorMatrix type="matrix" values="0 0 0 0 0.231575 0 0 0 0 0.954948 0 0 0 0 0.781833 0 0 0 1 0"/>
<feBlend mode="normal" in2="BackgroundImageFix" result="effect1_dropShadow_2040_11568"/>
<feBlend mode="normal" in="SourceGraphic" in2="effect1_dropShadow_2040_11568" result="shape"/>
</filter>
</defs>
</svg>
